<?xml version="1.0" standalone="no"?>
<!DOCTYPE svg PUBLIC "-//W3C//DTD SVG 20010904//EN"
 "http://www.w3.org/TR/2001/REC-SVG-20010904/DTD/svg10.dtd">
<svg version="1.0" xmlns="http://www.w3.org/2000/svg"
 width="179.000000pt" height="75.000000pt" viewBox="0 0 179.000000 75.000000"
 preserveAspectRatio="xMidYMid meet">

<g transform="translate(0.000000,75.000000) scale(0.100000,-0.100000)"
fill="#000000" stroke="none">
<path d="M1596 311 c-18 -7 -18 -8 -3 -14 11 -4 17 -18 17 -41 0 -34 -1 -35
-33 -29 -69 11 -114 -69 -74 -131 15 -23 22 -25 94 -24 43 1 70 3 61 5 -16 4
-18 18 -18 124 0 124 -1 127 -44 110z m2 -103 c7 -7 12 -33 12 -58 0 -49 -13
-70 -41 -70 -28 0 -49 29 -49 67 0 57 46 93 78 61z"/>
<path d="M1706 301 c-3 -5 0 -14 8 -20 10 -8 16 -8 25 2 6 8 8 17 4 20 -9 10
-31 9 -37 -2z"/>
<path d="M103 288 c-76 -20 -100 -127 -44 -190 25 -28 36 -33 75 -33 34 0 51
6 68 22 12 13 17 23 11 23 -6 0 -16 -7 -23 -15 -7 -8 -27 -15 -45 -15 -48 0
-75 37 -75 104 0 66 26 99 73 94 29 -3 32 -6 31 -35 -2 -37 19 -45 35 -15 23
43 -39 77 -106 60z"/>
<path d="M773 279 c25 -15 25 -183 0 -198 -14 -8 -10 -10 22 -10 32 0 36 2 23
10 -15 8 -18 24 -18 86 0 47 4 73 9 68 5 -6 24 -45 41 -87 18 -43 36 -78 40
-78 4 0 22 39 41 88 l34 87 3 -75 c2 -62 0 -77 -14 -87 -15 -11 -10 -13 37
-12 30 0 47 3 39 6 -25 10 -30 25 -30 105 0 68 2 79 23 93 22 16 21 16 -17 13
-36 -3 -40 -6 -57 -49 -9 -26 -25 -64 -34 -85 l-16 -39 -31 70 c-37 85 -53
105 -87 105 -23 -1 -24 -2 -8 -11z"/>
<path d="M270 215 c-13 -16 -7 -45 10 -45 5 0 9 10 7 22 -1 17 4 24 22 26 38
6 60 -52 24 -61 -17 -4 -17 -5 0 -6 9 0 17 -9 17 -19 0 -25 -35 -56 -55 -49
-20 8 -19 44 3 56 15 9 15 10 -4 11 -28 0 -46 -23 -42 -52 2 -18 10 -24 36
-26 18 -2 39 2 47 8 9 8 15 8 20 0 3 -5 16 -10 28 -9 12 0 16 3 10 6 -8 3 -13
25 -13 59 0 41 -5 59 -20 74 -24 24 -72 26 -90 5z"/>
<path d="M446 214 c-29 -29 -19 -53 29 -74 32 -14 45 -25 45 -40 0 -29 -60
-29 -67 0 -6 22 -18 26 -28 10 -22 -35 78 -56 110 -24 25 26 14 47 -37 72 -51
24 -57 32 -33 52 19 16 50 8 49 -13 -1 -9 4 -17 12 -17 17 0 18 22 2 38 -17
17 -64 15 -82 -4z"/>
<path d="M605 216 c-11 -8 -16 -19 -12 -30 7 -19 29 -22 26 -3 -4 31 2 38 29
35 21 -2 28 -9 30 -30 3 -25 0 -28 -37 -34 -47 -8 -64 -23 -59 -56 2 -18 10
-24 36 -26 18 -2 39 2 47 8 9 8 15 8 20 0 3 -5 16 -10 28 -9 12 0 16 3 10 6
-8 3 -13 26 -13 63 0 40 -5 64 -16 74 -19 20 -64 21 -89 2z m75 -85 c0 -25
-28 -53 -49 -49 -26 5 -26 47 1 57 36 15 48 13 48 -8z"/>
<path d="M1080 220 c-17 -4 -21 -8 -12 -14 6 -4 12 -25 12 -46 0 -65 14 -90
53 -90 18 0 38 5 45 12 9 9 12 9 12 0 0 -7 15 -12 38 -11 32 0 34 1 15 9 -21
8 -23 16 -23 78 0 69 0 69 -26 64 -18 -3 -22 -8 -15 -15 15 -15 14 -100 -1
-115 -16 -16 -45 -15 -55 1 -4 6 -10 39 -13 73 -5 58 -6 60 -30 54z"/>
<path d="M1286 221 c-18 -7 -18 -8 -3 -14 25 -10 25 -124 0 -130 -10 -3 2 -5
27 -5 25 0 39 2 33 5 -20 8 -17 119 3 127 49 19 64 2 64 -69 0 -31 -5 -47 -17
-54 -14 -8 -8 -10 27 -10 25 0 39 3 33 6 -8 3 -13 26 -13 62 0 79 -35 110 -91
81 -13 -7 -19 -7 -19 0 0 11 -16 12 -44 1z"/>
<path d="M1700 220 c-10 -6 -11 -10 -2 -10 8 0 12 -20 12 -64 0 -42 -4 -66
-12 -69 -7 -3 7 -6 32 -6 35 0 41 2 28 10 -15 8 -18 24 -18 79 0 72 -7 82 -40
60z"/>
</g>
</svg>
